<?xml version="1.0" encoding="utf-8"?>
<!-- Generator: Adobe Illustrator 24.3.0, SVG Export Plug-In . SVG Version: 6.00 Build 0)  -->
<svg version="1.1" id="레이어_1" xmlns="http://www.w3.org/2000/svg" xmlns:xlink="http://www.w3.org/1999/xlink" x="0px"
	 y="0px" viewBox="0 0 14 13" style="enable-background:new 0 0 14 13;" xml:space="preserve">
<style type="text/css">
	.st0{fill:#8D8D8D;}
</style>
<path class="st0" d="M5.45,12.69h-5.59V7.84c0-2.2,0.56-3.95,1.69-5.24c0.91-1.03,2.21-1.78,3.9-2.25v2.04
	c-0.89,0.19-1.61,0.6-2.14,1.23C2.63,4.46,2.29,5.61,2.29,7.06h3.16V12.69z M13.75,12.69H8.12V7.84c0-2.2,0.57-3.95,1.72-5.24
	c0.91-1.01,2.21-1.76,3.9-2.25v2.04c-0.89,0.19-1.61,0.6-2.14,1.23c-0.68,0.84-1.02,1.99-1.02,3.45h3.16V12.69z"/>
</svg>
