<?xml version="1.0" encoding="utf-8"?>
<!-- Generator: Adobe Illustrator 24.3.0, SVG Export Plug-In . SVG Version: 6.00 Build 0)  -->
<svg version="1.1" id="레이어_1" xmlns="http://www.w3.org/2000/svg" xmlns:xlink="http://www.w3.org/1999/xlink" x="0px"
	 y="0px" viewBox="0 0 14.27 12.34" style="enable-background:new 0 0 14.27 12.34;" xml:space="preserve">
<style type="text/css">
	.st0{fill:#8D8D8D;}
</style>
<path class="st0" d="M5.98,4.82c0,2.2-0.54,3.91-1.62,5.13c-0.87,0.98-2.18,1.7-3.94,2.14H0.39v-2.07C1.32,9.69,2,9.29,2.43,8.82
	c0.63-0.7,1.01-1.77,1.12-3.2H0.39V0h5.59V4.82z M14.27,4.82c0,2.2-0.54,3.91-1.62,5.13c-0.89,0.98-2.21,1.7-3.97,2.14H8.65v-2.07
	c0.94-0.33,1.62-0.73,2.04-1.2c0.63-0.7,1-1.77,1.09-3.2H8.65V0h5.62V4.82z"/>
</svg>
